<svg xmlns="http://www.w3.org/2000/svg" viewBox="0 0 12 12">
  <path fill="#8E8E93" fill-rule="evenodd" d="M0.325302291,10.0435256 L4.36373747,6.00435256 L0.325302291,1.96517954 C-0.10117039,1.53862894 -0.118577438,0.77257889 0.334005815,0.328618063 C0.777885544,-0.115342764 1.54379566,-0.0979325354 1.96156482,0.319912949 L6,4.35908596 L10.0384352,0.328618063 C10.4736114,-0.10663765 11.2221145,-0.115342764 11.6659942,0.337323177 C12.1098739,0.781284004 12.1098739,1.52992383 11.6746977,1.96517954 L7.63626253,6.00435256 L11.6746977,10.0348205 C12.1098739,10.4700762 12.1098739,11.218716 11.6659942,11.6626768 C11.2221145,12.1153428 10.4736114,12.1066376 10.0384352,11.6713819 L6,7.64091404 L1.96156482,11.6800871 C1.54379566,12.0979325 0.777885544,12.1153428 0.334005815,11.6713819 C-0.118577438,11.2274211 -0.10117039,10.4613711 0.325302291,10.0435256 Z"/>
</svg>
