<svg xmlns="http://www.w3.org/2000/svg" xmlns:xlink="http://www.w3.org/1999/xlink" width="230" height="140" viewBox="0 0 230 140">
    <defs>
        <linearGradient id="a" x1="0%" y1="50%" y2="50%">
            <stop offset="0%" stop-color="#B7E4F7"/>
            <stop offset="29.432%" stop-color="#FFDEC7"/>
            <stop offset="66.878%" stop-color="#FFDDC5"/>
            <stop offset="100%" stop-color="#B4DEF1"/>
        </linearGradient>
        <path id="b" d="M65 130c-35.899 0-65-29.101-65-65S29.101 0 65 0s65 29.101 65 65-29.101 65-65 65zm0-30c19.33 0 35-15.67 35-35S84.33 30 65 30 30 45.67 30 65s15.67 35 35 35z"/>
        <path id="d" d="M11.017 0h17.966a4 4 0 0 1 3.846 2.901l5.714 20A4 4 0 0 1 34.697 28H5.303a4 4 0 0 1-3.846-5.099l5.714-20A4 4 0 0 1 11.017 0z"/>
        <path id="g" d="M11.017 0h17.966a4 4 0 0 1 3.846 2.901l5.714 20A4 4 0 0 1 34.697 28H5.303a4 4 0 0 1-3.846-5.099l5.714-20A4 4 0 0 1 11.017 0z"/>
        <filter id="f" width="146%" height="175%" x="-23%" y="-37.5%" filterUnits="objectBoundingBox">
            <feMorphology in="SourceAlpha" operator="dilate" radius="1" result="shadowSpreadOuter1"/>
            <feOffset in="shadowSpreadOuter1" result="shadowOffsetOuter1"/>
            <feGaussianBlur in="shadowOffsetOuter1" result="shadowBlurOuter1" stdDeviation="2.5"/>
            <feColorMatrix in="shadowBlurOuter1" values="0 0 0 0 1 0 0 0 0 1 0 0 0 0 1 0 0 0 1 0"/>
        </filter>
        <circle id="i" cx="18" cy="18" r="18"/>
        <filter id="h" width="108.3%" height="108.3%" x="-4.2%" y="-4.2%" filterUnits="objectBoundingBox">
            <feGaussianBlur in="SourceAlpha" result="shadowBlurInner1" stdDeviation="1"/>
            <feOffset dx="1" dy="-1" in="shadowBlurInner1" result="shadowOffsetInner1"/>
            <feComposite in="shadowOffsetInner1" in2="SourceAlpha" k2="-1" k3="1" operator="arithmetic" result="shadowInnerInner1"/>
            <feColorMatrix in="shadowInnerInner1" result="shadowMatrixInner1" values="0 0 0 0 0.678431373 0 0 0 0 0.870588235 0 0 0 0 0.945098039 0 0 0 0.25 0"/>
            <feGaussianBlur in="SourceAlpha" result="shadowBlurInner2" stdDeviation="1"/>
            <feOffset dx="-1" dy="1" in="shadowBlurInner2" result="shadowOffsetInner2"/>
            <feComposite in="shadowOffsetInner2" in2="SourceAlpha" k2="-1" k3="1" operator="arithmetic" result="shadowInnerInner2"/>
            <feColorMatrix in="shadowInnerInner2" result="shadowMatrixInner2" values="0 0 0 0 1 0 0 0 0 1 0 0 0 0 1 0 0 0 0.75 0"/>
            <feMerge>
                <feMergeNode in="shadowMatrixInner1"/>
                <feMergeNode in="shadowMatrixInner2"/>
            </feMerge>
        </filter>
        <radialGradient id="k" r="74.205%" fx="50%" fy="50%" gradientTransform="matrix(0 .77778 -1 0 1 .111)">
            <stop offset="0%"/>
            <stop offset="49.723%" stop-color="#2B2B2B" stop-opacity=".856"/>
            <stop offset="100%" stop-color="#FFF" stop-opacity=".15"/>
        </radialGradient>
        <path id="j" d="M.5 4c0-2.21 1.8-4 4.005-4h47.99A4.007 4.007 0 0 1 56.5 4v64c0 2.21-1.8 4-4.005 4H4.505A4.007 4.007 0 0 1 .5 68V4z"/>
    </defs>
    <g fill="none" fill-rule="evenodd">
        <rect width="230" height="140" fill="#FFF" rx="10.588"/>
        <rect width="230" height="140" fill="url(#a)" fill-opacity=".25" rx="10.588"/>
        <g opacity=".5" style="mix-blend-mode:overlay" transform="translate(55 5)">
            <mask id="c" fill="#fff">
                <use xlink:href="#b"/>
            </mask>
            <g stroke="#000" stroke-width=".5" mask="url(#c)" style="mix-blend-mode:overlay">
                <g transform="translate(-88 -88)">
                    <circle cx="153" cy="80" r="65"/>
                    <circle cx="157.584" cy="80.144" r="65" transform="rotate(4 157.584 80.144)"/>
                    <circle cx="162.149" cy="80.576" r="65" transform="rotate(7 162.15 80.576)"/>
                    <circle cx="166.679" cy="81.293" r="65" transform="rotate(11 166.679 81.293)"/>
                    <circle cx="171.154" cy="82.293" r="65" transform="rotate(14 171.154 82.293)"/>
                    <circle cx="175.558" cy="83.573" r="65" transform="rotate(18 175.558 83.573)"/>
                    <circle cx="179.873" cy="85.126" r="65" transform="rotate(22 179.873 85.126)"/>
                    <circle cx="184.082" cy="86.948" r="65" transform="rotate(25 184.082 86.948)"/>
                    <circle cx="188.168" cy="89.03" r="65" transform="rotate(29 188.168 89.03)"/>
                    <circle cx="192.115" cy="91.364" r="65" transform="rotate(32 192.115 91.364)"/>
                    <circle cx="195.908" cy="93.942" r="65" transform="rotate(36 195.908 93.942)"/>
                    <circle cx="199.532" cy="96.753" r="65" transform="rotate(40 199.532 96.753)"/>
                    <circle cx="202.972" cy="99.785" r="65" transform="rotate(43 202.972 99.785)"/>
                    <circle cx="206.215" cy="103.028" r="65" transform="rotate(47 206.215 103.028)"/>
                    <circle cx="209.247" cy="106.468" r="65" transform="rotate(50 209.247 106.468)"/>
                    <circle cx="212.058" cy="110.092" r="65" transform="rotate(54 212.058 110.092)"/>
                    <circle cx="214.636" cy="113.885" r="65" transform="rotate(58 214.636 113.885)"/>
                    <circle cx="216.97" cy="117.832" r="65" transform="rotate(61 216.97 117.832)"/>
                    <circle cx="219.052" cy="121.918" r="65" transform="rotate(65 219.052 121.918)"/>
                    <circle cx="220.874" cy="126.127" r="65" transform="rotate(68 220.874 126.127)"/>
                    <circle cx="222.427" cy="130.442" r="65" transform="rotate(72 222.427 130.442)"/>
                    <circle cx="223.707" cy="134.846" r="65" transform="rotate(76 223.707 134.846)"/>
                    <circle cx="224.707" cy="139.321" r="65" transform="rotate(79 224.707 139.321)"/>
                    <circle cx="225.424" cy="143.851" r="65" transform="rotate(83 225.424 143.85)"/>
                    <circle cx="225.856" cy="148.416" r="65" transform="rotate(86 225.856 148.416)"/>
                    <circle cx="226" cy="153" r="65" transform="rotate(90 226 153)"/>
                    <circle cx="225.856" cy="157.584" r="65" transform="rotate(94 225.856 157.584)"/>
                    <circle cx="225.424" cy="162.149" r="65" transform="rotate(97 225.424 162.15)"/>
                    <circle cx="224.707" cy="166.679" r="65" transform="rotate(101 224.707 166.679)"/>
                    <circle cx="223.707" cy="171.154" r="65" transform="rotate(104 223.707 171.154)"/>
                    <circle cx="222.427" cy="175.558" r="65" transform="rotate(108 222.427 175.558)"/>
                    <circle cx="220.874" cy="179.873" r="65" transform="rotate(112 220.874 179.873)"/>
                    <circle cx="219.052" cy="184.082" r="65" transform="rotate(115 219.052 184.082)"/>
                    <circle cx="216.97" cy="188.168" r="65" transform="rotate(119 216.97 188.168)"/>
                    <circle cx="214.636" cy="192.115" r="65" transform="rotate(122 214.636 192.115)"/>
                    <circle cx="212.058" cy="195.908" r="65" transform="rotate(126 212.058 195.908)"/>
                    <circle cx="209.247" cy="199.532" r="65" transform="rotate(130 209.247 199.532)"/>
                    <circle cx="206.215" cy="202.972" r="65" transform="rotate(133 206.215 202.972)"/>
                    <circle cx="202.972" cy="206.215" r="65" transform="rotate(137 202.972 206.215)"/>
                    <circle cx="199.532" cy="209.247" r="65" transform="rotate(140 199.532 209.247)"/>
                    <circle cx="195.908" cy="212.058" r="65" transform="rotate(144 195.908 212.058)"/>
                    <circle cx="192.115" cy="214.636" r="65" transform="rotate(148 192.115 214.636)"/>
                    <circle cx="188.168" cy="216.97" r="65" transform="rotate(151 188.168 216.97)"/>
                    <circle cx="184.082" cy="219.052" r="65" transform="rotate(155 184.082 219.052)"/>
                    <circle cx="179.873" cy="220.874" r="65" transform="rotate(158 179.873 220.874)"/>
                    <circle cx="175.558" cy="222.427" r="65" transform="rotate(162 175.558 222.427)"/>
                    <circle cx="171.154" cy="223.707" r="65" transform="rotate(166 171.154 223.707)"/>
                    <circle cx="166.679" cy="224.707" r="65" transform="rotate(169 166.679 224.707)"/>
                    <circle cx="162.149" cy="225.424" r="65" transform="rotate(173 162.15 225.424)"/>
                    <circle cx="157.584" cy="225.856" r="65" transform="rotate(176 157.584 225.856)"/>
                    <circle cx="153" cy="226" r="65" transform="rotate(180 153 226)"/>
                    <circle cx="148.416" cy="225.856" r="65" transform="rotate(-176 148.416 225.856)"/>
                    <circle cx="143.851" cy="225.424" r="65" transform="rotate(-173 143.85 225.424)"/>
                    <circle cx="139.321" cy="224.707" r="65" transform="rotate(-169 139.321 224.707)"/>
                    <circle cx="134.846" cy="223.707" r="65" transform="rotate(-166 134.846 223.707)"/>
                    <circle cx="130.442" cy="222.427" r="65" transform="rotate(-162 130.442 222.427)"/>
                    <circle cx="126.127" cy="220.874" r="65" transform="rotate(-158 126.127 220.874)"/>
                    <circle cx="121.918" cy="219.052" r="65" transform="rotate(-155 121.918 219.052)"/>
                    <circle cx="117.832" cy="216.97" r="65" transform="rotate(-151 117.832 216.97)"/>
                    <circle cx="113.885" cy="214.636" r="65" transform="rotate(-148 113.885 214.636)"/>
                    <circle cx="110.092" cy="212.058" r="65" transform="rotate(-144 110.092 212.058)"/>
                    <circle cx="106.468" cy="209.247" r="65" transform="rotate(-140 106.468 209.247)"/>
                    <circle cx="103.028" cy="206.215" r="65" transform="rotate(-137 103.028 206.215)"/>
                    <circle cx="99.785" cy="202.972" r="65" transform="rotate(-133 99.785 202.972)"/>
                    <circle cx="96.753" cy="199.532" r="65" transform="rotate(-130 96.753 199.532)"/>
                    <circle cx="93.942" cy="195.908" r="65" transform="rotate(-126 93.942 195.908)"/>
                    <circle cx="91.364" cy="192.115" r="65" transform="rotate(-122 91.364 192.115)"/>
                    <circle cx="89.03" cy="188.168" r="65" transform="rotate(-119 89.03 188.168)"/>
                    <circle cx="86.948" cy="184.082" r="65" transform="rotate(-115 86.948 184.082)"/>
                    <circle cx="85.126" cy="179.873" r="65" transform="rotate(-112 85.126 179.873)"/>
                    <circle cx="83.573" cy="175.558" r="65" transform="rotate(-108 83.573 175.558)"/>
                    <circle cx="82.293" cy="171.154" r="65" transform="rotate(-104 82.293 171.154)"/>
                    <circle cx="81.293" cy="166.679" r="65" transform="rotate(-101 81.293 166.679)"/>
                    <circle cx="80.576" cy="162.149" r="65" transform="rotate(-97 80.576 162.15)"/>
                    <circle cx="80.144" cy="157.584" r="65" transform="rotate(-94 80.144 157.584)"/>
                    <circle cx="80" cy="153" r="65" transform="rotate(-90 80 153)"/>
                    <circle cx="80.144" cy="148.416" r="65" transform="rotate(-86 80.144 148.416)"/>
                    <circle cx="80.576" cy="143.851" r="65" transform="rotate(-83 80.576 143.85)"/>
                    <circle cx="81.293" cy="139.321" r="65" transform="rotate(-79 81.293 139.321)"/>
                    <circle cx="82.293" cy="134.846" r="65" transform="rotate(-76 82.293 134.846)"/>
                    <circle cx="83.573" cy="130.442" r="65" transform="rotate(-72 83.573 130.442)"/>
                    <circle cx="85.126" cy="126.127" r="65" transform="rotate(-68 85.126 126.127)"/>
                    <circle cx="86.948" cy="121.918" r="65" transform="rotate(-65 86.948 121.918)"/>
                    <circle cx="89.03" cy="117.832" r="65" transform="rotate(-61 89.03 117.832)"/>
                    <circle cx="91.364" cy="113.885" r="65" transform="rotate(-58 91.364 113.885)"/>
                    <circle cx="93.942" cy="110.092" r="65" transform="rotate(-54 93.942 110.092)"/>
                    <circle cx="96.753" cy="106.468" r="65" transform="rotate(-50 96.753 106.468)"/>
                    <circle cx="99.785" cy="103.028" r="65" transform="rotate(-47 99.785 103.028)"/>
                    <circle cx="103.028" cy="99.785" r="65" transform="rotate(-43 103.028 99.785)"/>
                    <circle cx="106.468" cy="96.753" r="65" transform="rotate(-40 106.468 96.753)"/>
                    <circle cx="110.092" cy="93.942" r="65" transform="rotate(-36 110.092 93.942)"/>
                    <circle cx="113.885" cy="91.364" r="65" transform="rotate(-32 113.885 91.364)"/>
                    <circle cx="117.832" cy="89.03" r="65" transform="rotate(-29 117.832 89.03)"/>
                    <circle cx="121.918" cy="86.948" r="65" transform="rotate(-25 121.918 86.948)"/>
                    <circle cx="126.127" cy="85.126" r="65" transform="rotate(-22 126.127 85.126)"/>
                    <circle cx="130.442" cy="83.573" r="65" transform="rotate(-18 130.442 83.573)"/>
                    <circle cx="134.846" cy="82.293" r="65" transform="rotate(-14 134.846 82.293)"/>
                    <circle cx="139.321" cy="81.293" r="65" transform="rotate(-11 139.321 81.293)"/>
                    <circle cx="143.851" cy="80.576" r="65" transform="rotate(-7 143.85 80.576)"/>
                    <circle cx="148.416" cy="80.144" r="65" transform="rotate(-4 148.416 80.144)"/>
                </g>
            </g>
        </g>
        <path fill="#000" fill-opacity=".05" d="M212.45 123.5a2.511 2.511 0 0 1 0 1 2.5 2.5 0 1 1 0-1zm1.015 1H220v5.5h-20v-5.5h6.535a3.5 3.5 0 0 0 6.93 0zm-6.93-1H200V118h20v5.5h-6.535a3.5 3.5 0 0 0-6.93 0z"/>
        <g transform="translate(180 56)">
            <mask id="e" fill="#fff">
                <use xlink:href="#d"/>
            </mask>
            <use fill="#FFF" xlink:href="#d"/>
            <g mask="url(#e)">
                <use fill="#000" filter="url(#f)" xlink:href="#g"/>
                <use fill="#FFF" xlink:href="#g"/>
            </g>
            <g fill="#F2F2F2" mask="url(#e)">
                <path d="M15.14 4h8.476v1.704c2.774 0 5.023 2.44 5.023 5.451 0 3.01-2.25 5.451-5.023 5.451-2.774 0-5.023-2.44-5.023-5.451 0-.114.003-.228.01-.34h-3.464C13.406 10.814 12 9.288 12 7.406S13.406 4 15.14 4z"/>
                <path d="M26.127 18.31c-.78 0-1.413-.686-1.413-1.533 0-.847.633-1.533 1.413-1.533s1.413.686 1.413 1.533c0 .847-.633 1.533-1.413 1.533zm-10.988 0c-.78 0-1.412-.686-1.412-1.533 0-.847.632-1.533 1.412-1.533.78 0 1.413.686 1.413 1.533 0 .847-.632 1.533-1.413 1.533z"/>
                <path d="M26.127 17.799c0 3.293-2.46 5.962-5.494 5.962s-5.494-2.67-5.494-5.962V8.77c0 1.129.844 2.044 1.885 2.044h7.219c1.04 0 1.884.915 1.884 2.044v4.94z"/>
                <path d="M23.915 18.913c.124.531.6.949 1.185.953.33 0 .645-.16.87-.433-.691 2.521-2.824 4.34-5.376 4.328-2.518-.012-4.66-1.905-5.298-4.501.224.35.573.559.95.519.585.045 1.063-.368 1.185-.952.084-.196.257-.348.475-.347h5.534c.229.03.4.183.475.433zm-2.654-1.625c0 .376-.281.681-.628.681-.346 0-.628-.305-.628-.681h1.256z"/>
                <path d="M19.22 19.162h2.826c-.004.856-.639 1.537-1.413 1.533-.786-.004-1.416-.69-1.412-1.533M16.866 13.71c0-.282.231-.51.515-.51h.854c.284 0 .515.236.515.51a.513.513 0 0 1-.515.511h-.854a.518.518 0 0 1-.515-.51zm.942 1.874c.001-.284.213-.512.47-.51.263 0 .473.23.472.51-.002.285-.213.513-.471.511-.262-.001-.472-.23-.471-.51zm4.709-1.874c0-.282.23-.51.515-.51h.854c.284 0 .515.236.515.51a.513.513 0 0 1-.515.511h-.854a.518.518 0 0 1-.515-.51zm.942 1.874c-.002.285-.213.513-.471.511-.262 0-.472-.23-.471-.51.001-.285.213-.513.47-.512.263.001.473.231.472.511z"/>
            </g>
        </g>
        <g fill="#000">
            <use filter="url(#h)" transform="translate(194)" xlink:href="#i"/>
            <path fill-opacity=".05" fill-rule="nonzero" d="M211.583 23.677l-5.309 3.823 5.309-7.052v3.23zm-6.057 3.431l2.05-6.36 3.568-1.103-5.618 7.463zm1.773-7.145L202 16.29l8.592 2.656-3.293 1.018zm-5.024-4.46h6.42l1.947 2.587-8.367-2.586zm7.104-.478l2.204-6.525v9.453l-2.204-2.928zm3.204-6.036l2.038 6.036-2.038 2.709V8.989zm2.722 6.515h6.42l-8.367 2.586 1.947-2.586zm6.695.785l-5.299 3.674-3.293-1.018L222 16.289zm-5.577 4.458l2.051 6.361-5.618-7.463 3.567 1.102zm1.303 6.753l-5.143-3.704v-3.128l5.143 6.832z"/>
        </g>
        <path stroke="#000" stroke-opacity=".05" stroke-width="1.5" d="M111.932 106c-2.919 3.475-6.153 6.8-8.757 10.425-10.59 14.747 21.168 5.164 15.985-6.745-1.126-2.589-14.054 8.25-9.872 11.636 1.016.823 3.02.408 4.388 0l6.58-5.749c1.508-.45-1.096 5.155 1.089 5.155 2.862 0 8.973-5.564 6.905-5.047-66.66 16.65-45.44 3.68 13.302.721"/>
        <path stroke="#000" stroke-linecap="round" stroke-linejoin="round" stroke-opacity=".05" stroke-width="2" d="M77 96.5h32"/>
        <path stroke="#000" stroke-linecap="round" stroke-linejoin="round" stroke-opacity=".05" stroke-width="8" d="M130 87.5h24"/>
        <path stroke="#000" stroke-linecap="round" stroke-linejoin="round" stroke-opacity=".05" stroke-width="2" d="M127 80.5h36"/>
        <path stroke="#000" stroke-linecap="round" stroke-linejoin="round" stroke-opacity=".05" stroke-width="8" d="M80 87.5h28"/>
        <path stroke="#000" stroke-linecap="round" stroke-linejoin="round" stroke-opacity=".05" stroke-width="2" d="M77 80.5h36"/>
        <path stroke="#000" stroke-linecap="round" stroke-linejoin="round" stroke-opacity=".05" stroke-width="8" d="M130 71.5h4"/>
        <path stroke="#000" stroke-linecap="round" stroke-linejoin="round" stroke-opacity=".05" stroke-width="2" d="M127 64.5h8"/>
        <path stroke="#000" stroke-linecap="round" stroke-linejoin="round" stroke-opacity=".05" stroke-width="8" d="M80 71.5h28"/>
        <path stroke="#000" stroke-linecap="round" stroke-linejoin="round" stroke-opacity=".05" stroke-width="2" d="M77 64.5h28"/>
        <path stroke="#000" stroke-linecap="round" stroke-linejoin="round" stroke-opacity=".05" stroke-width="8" d="M80 55.5h56"/>
        <path stroke="#000" stroke-linecap="round" stroke-linejoin="round" stroke-opacity=".05" stroke-width="2" d="M77 48.5h20"/>
        <path stroke="#000" stroke-linecap="round" stroke-linejoin="round" stroke-opacity=".05" stroke-width="8" d="M80 39.5h64"/>
        <path stroke="#000" stroke-linecap="round" stroke-linejoin="round" stroke-opacity=".05" stroke-width="2" d="M77 32.5h24M77 20.5h80"/>
        <path stroke="#000" stroke-linecap="round" stroke-linejoin="round" stroke-opacity=".05" stroke-width="8" d="M80 13.5h76M13 125.5h52"/>
        <g transform="translate(10 39)">
            <mask id="l" fill="#fff">
                <use xlink:href="#j"/>
            </mask>
            <use fill="url(#k)" xlink:href="#j"/>
            <path fill="#FFF" d="M0 0h57v72H0z" mask="url(#l)"/>
            <g mask="url(#l)">
                <path fill="#666" d="M14.964 8.41h21.44v4.174c7.017 0 12.705 5.98 12.705 13.356 0 7.376-5.688 13.356-12.705 13.356s-12.705-5.98-12.705-13.356c0-.28.008-.559.024-.835h-8.76c-4.385 0-7.94-3.737-7.94-8.347 0-4.61 3.555-8.348 7.94-8.348z"/>
                <path fill="#CCC" d="M42.757 43.47c-1.974 0-3.574-1.682-3.574-3.757 0-2.074 1.6-3.756 3.574-3.756 1.973 0 3.573 1.682 3.573 3.756 0 2.075-1.6 3.757-3.573 3.757zm-27.793 0c-1.974 0-3.573-1.682-3.573-3.757 0-2.074 1.6-3.756 3.573-3.756 1.973 0 3.573 1.682 3.573 3.756 0 2.075-1.6 3.757-3.573 3.757z"/>
                <path fill="#666" d="M41.565 66.425c2.632 0 4.765 2.243 4.765 5.009v3.756H36.8v-3.756c0-2.766 2.133-5.009 4.764-5.009zm-25.41 0c2.631 0 4.764 2.243 4.764 5.009v3.756h-9.528v-3.756c0-2.766 2.133-5.009 4.764-5.009z"/>
                <path fill="#999" d="M42.683 72.008a37.73 37.73 0 0 1-14.813 3.008c-4.525 0-8.865-.794-12.888-2.25.374-7.717 6.445-13.853 13.878-13.853 7.189 0 13.103 5.738 13.823 13.095z"/>
                <path fill="#E5E5E5" d="M32.434 56.338v4.003a3.58 3.58 0 0 1-3.574 3.58 3.58 3.58 0 0 1-3.573-3.58v-4.003c-5.943-1.657-10.323-7.351-10.323-14.12V20.097c0 2.766 2.135 5.008 4.766 5.008h18.26c2.633 0 4.767 2.242 4.767 5.007v12.106c0 6.769-4.38 12.463-10.323 14.12z"/>
                <path fill="#B3B3B3" d="M32.434 58.392c-1.144.3-2.341.46-3.574.46-1.232 0-2.43-.16-3.573-.46v-6.125a3.58 3.58 0 0 1 3.573-3.58 3.58 3.58 0 0 1 3.574 3.58v6.125z"/>
                <path fill="#CCC" d="M37.16 44.948c.316 1.301 1.517 2.323 3 2.333.834.002 1.63-.393 2.2-1.06-1.749 6.177-7.143 10.635-13.6 10.605-6.368-.031-11.784-4.668-13.4-11.03.567.86 1.45 1.37 2.4 1.273 1.483.11 2.693-.901 3-2.333.212-.479.65-.851 1.2-.849h14c.578.07 1.013.447 1.2 1.06zm-6.712-3.982c0 .922-.71 1.67-1.588 1.67-.877 0-1.588-.748-1.588-1.67h3.176z"/>
                <path fill="#FFF" d="M25.287 45.557h7.147c-.01 2.099-1.617 3.765-3.574 3.756-1.99-.01-3.582-1.691-3.573-3.756"/>
                <path fill="#666" d="M19.331 32.2c0-.69.566-1.251 1.252-1.251h2.261c.691 0 1.252.555 1.252 1.252 0 .691-.565 1.252-1.252 1.252h-2.26A1.249 1.249 0 0 1 19.33 32.2zm2.383 4.592c.003-.697.538-1.256 1.19-1.252.664.003 1.195.566 1.192 1.252-.003.697-.539 1.255-1.191 1.252-.664-.003-1.195-.566-1.191-1.252zm11.91-4.591c0-.692.566-1.252 1.253-1.252h2.26c.692 0 1.252.555 1.252 1.252 0 .691-.565 1.252-1.252 1.252h-2.26a1.249 1.249 0 0 1-1.252-1.252zm2.383 4.59c-.003.698-.539 1.256-1.191 1.253-.663-.003-1.194-.566-1.191-1.252.003-.698.538-1.256 1.19-1.252.664.003 1.195.566 1.192 1.252z"/>
            </g>
        </g>
        <path fill="#FFF" d="M49 10h18v12H49z"/>
        <path fill="#E30000" d="M49 16h18v6H49z"/>
        <path fill="#0061B7" d="M49 10h6v6h-6z"/>
        <path stroke="#000" stroke-linecap="round" stroke-linejoin="round" stroke-opacity=".05" stroke-width="4" d="M12 19.5h28M12 13h28"/>
    </g>
</svg>
