<svg xmlns="http://www.w3.org/2000/svg" width="205" height="75" viewBox="0 0 205 75">
  <path fill="#F9BE03" fill-rule="evenodd" d="M20,23.3227848 L25.6630224,23.3227848 L25.6630224,32.6600795 C26.8333804,31.2464651 27.7772174,30.5768583 29.7026451,30.5768583 C33.062705,30.5768583 35.1391466,33.8132911 35.1391466,38.9469432 C35.1391466,43.9317937 32.5719097,47.8006329 28.6455475,47.8006329 C27.0976547,47.8006329 26.1538177,46.9450242 25.2854876,46.0522152 L23.8131018,47.5402303 L20,47.5402303 L20,23.3227848 Z M25.67718,42.2589486 C26.0145394,42.7782993 26.4268676,43.0379747 27.1015865,43.0379747 C28.525993,43.0379747 29.3506494,41.4799225 29.3506494,39.0686512 C29.3506494,36.583187 28.6384461,35.2848101 27.3639771,35.2848101 C25.977055,35.2848101 25.67718,36.583187 25.67718,38.3267216 L25.67718,42.2589486 Z M36.9202226,31.1867089 L42.5974026,31.1867089 L42.5974026,47.4683544 L36.9202226,47.4683544 L36.9202226,31.1867089 Z M50.2563115,32.8215861 C51.1933491,31.4493431 52.4677203,30.5221519 54.4542402,30.5221519 C57.9400202,30.5221519 59.851577,34.1567415 59.851577,38.9039605 C59.851577,44.652546 56.665649,47.6937332 53.7420915,47.6937332 C52.3927573,47.6937332 51.3057937,47.1745061 50.5936451,46.3956655 L50.5936451,55 L45.0463822,55 L45.0463822,31.0784666 L49.8065334,31.0784666 L50.2563115,32.8215861 Z M50.6122449,42.2626582 C50.6864564,42.5580169 51.3543599,43.0379747 51.9480519,43.0379747 C53.5064935,43.0379747 54.0630798,41.1919831 54.0630798,39.1613924 C54.0630798,36.8723629 53.729128,35.2848101 52.2077922,35.2848101 C50.9090909,35.2848101 50.6122449,36.6508439 50.6122449,38.3491561 L50.6122449,42.2626582 Z M80,23.2651899 L70.5717576,42.2626582 L64.7495362,39.6653481 L72.1869545,20 L80,23.2651899 Z M36.8089054,25.8900805 C36.8089054,24.1227145 38.0862709,22.7689873 39.8520408,22.7689873 C41.5426716,22.7689873 42.8200371,24.1227145 42.8200371,25.8900805 C42.8200371,27.5822394 41.5426716,28.8607595 39.8520408,28.8607595 C38.0862709,28.8607595 36.8089054,27.5822394 36.8089054,25.8900805 Z M60.6307978,47.2280545 C60.6307978,44.7807512 62.4648589,43.0379747 64.9726568,43.0379747 C67.405595,43.0379747 69.2022263,44.7807512 69.2022263,47.2280545 C69.2022263,49.7865988 67.405595,51.5664557 64.9726568,51.5664557 C62.4648589,51.5664557 60.6307978,49.7865988 60.6307978,47.2280545 Z"/>
</svg>
