<svg xmlns="http://www.w3.org/2000/svg" width="205" height="75" viewBox="0 0 205 75">
  <path fill="#FFF" d="M22.7072011,33.2880435 L22.7072011,24.0404212 L24.4650136,24.0404212 L24.4650136,25.5264946 L24.6008832,25.5264946 C25.0084918,24.4819973 25.9425951,23.8620924 27.173913,23.8620924 C28.4391984,23.8620924 29.3138587,24.5159647 29.7214674,25.5264946 L29.8658288,25.5264946 C30.3328804,24.5159647 31.3943614,23.8620924 32.6766304,23.8620924 C34.544837,23.8620924 35.6317935,24.9915082 35.6317935,26.9191576 L35.6317935,33.2880435 L33.8060462,33.2880435 L33.8060462,27.3947011 C33.8060462,26.1463995 33.2116168,25.5349864 32.0142663,25.5349864 C30.8338995,25.5349864 30.0611413,26.3841712 30.0611413,27.4711277 L30.0611413,33.2880435 L28.2693614,33.2880435 L28.2693614,27.2163723 C28.2693614,26.171875 27.5730299,25.5349864 26.4860734,25.5349864 C25.3736413,25.5349864 24.5329484,26.4436141 24.5329484,27.6324728 L24.5329484,33.2880435 L22.7072011,33.2880435 Z M41.3232912,25.4161005 C39.9730874,25.4161005 39.0304923,26.3671875 38.9285901,27.8108016 L43.5991064,27.8108016 C43.5566472,26.3586957 42.673495,25.4161005 41.3232912,25.4161005 Z M43.5906146,30.7914402 L45.3484271,30.7914402 C44.9323265,32.4473505 43.454745,33.4663723 41.3402749,33.4663723 C38.6908184,33.4663723 37.0688754,31.6491168 37.0688754,28.6939538 C37.0688754,25.7387908 38.7247858,23.8620924 41.331783,23.8620924 C43.9048129,23.8620924 45.4588211,25.6199049 45.4588211,28.5241168 L45.4588211,29.1610054 L38.9285901,29.1610054 L38.9285901,29.2629076 C38.988033,30.8848505 39.9306282,31.9123641 41.391226,31.9123641 C42.4951662,31.9123641 43.2509407,31.5132473 43.5906146,30.7914402 Z M47.626202,21.7391304 L49.4519492,21.7391304 L49.4519492,24.0828804 L51.4560253,24.0828804 L51.4560253,25.6199049 L49.4519492,25.6199049 L49.4519492,30.3753397 C49.4519492,31.3434103 49.8510661,31.7680027 50.7596938,31.7680027 C51.0399248,31.7680027 51.2012699,31.751019 51.4560253,31.7255435 L51.4560253,33.2455842 C51.1588107,33.2965353 50.8191367,33.3389946 50.4624791,33.3389946 C48.4329275,33.3389946 47.626202,32.6256793 47.626202,30.8423913 L47.626202,25.6199049 L46.1571123,25.6199049 L46.1571123,24.0828804 L47.626202,24.0828804 L47.626202,21.7391304 Z M52.9355665,33.2880435 L52.9355665,24.0404212 L54.693379,24.0404212 L54.693379,25.4585598 L54.8292486,25.4585598 C55.0924959,24.5499321 56.1200095,23.8875679 57.3258518,23.8875679 C57.597591,23.8875679 57.9457567,23.9130435 58.1410692,23.9639946 L58.1410692,25.7642663 C57.988216,25.7133152 57.4447377,25.6538723 57.1220475,25.6538723 C55.7378763,25.6538723 54.7613138,26.5285326 54.7613138,27.8277853 L54.7613138,33.2880435 L52.9355665,33.2880435 Z M62.8984637,33.4663723 C60.1895642,33.4663723 58.5336539,31.6576087 58.5336539,28.6599864 C58.5336539,25.6793478 60.1980561,23.8620924 62.8984637,23.8620924 C65.5903795,23.8620924 67.2547816,25.6793478 67.2547816,28.6599864 C67.2547816,31.6576087 65.5988713,33.4663723 62.8984637,33.4663723 Z M62.8984637,31.8444293 C64.4779474,31.8444293 65.3780833,30.6725543 65.3780833,28.6599864 C65.3780833,26.6559103 64.4779474,25.4840353 62.8984637,25.4840353 C61.3104882,25.4840353 60.4188441,26.6559103 60.4188441,28.6599864 C60.4188441,30.6810462 61.3104882,31.8444293 62.8984637,31.8444293 Z M31.5387228,40.1409647 L28.3882473,49.5923913 L24.9235734,49.5923913 L21.7391304,40.1409647 L24.9745245,40.1409647 L26.6134511,46.9004755 L26.7747962,46.9004755 L28.3797554,40.1409647 L31.5387228,40.1409647 Z M35.7950983,47.6392663 C36.7461852,47.6392663 37.484976,47.0108696 37.484976,46.1956522 L37.484976,45.5757473 L35.8970004,45.6776495 C35.0053564,45.7455842 34.5383048,46.09375 34.5383048,46.6627038 C34.5383048,47.265625 35.0393238,47.6392663 35.7950983,47.6392663 Z M34.6996499,49.7367527 C32.8823945,49.7367527 31.6425847,48.607337 31.6425847,46.875 C31.6425847,45.1511549 32.9842966,44.1491168 35.421457,44.0047554 L37.484976,43.8858696 L37.484976,43.1470788 C37.484976,42.5101902 37.0094325,42.1280571 36.1772314,42.1280571 C35.3874896,42.1280571 34.8779787,42.3913043 34.6826662,42.8923234 L31.9822586,42.8923234 C32.1181282,41.0580842 33.7910222,39.9201766 36.3470684,39.9201766 C38.9540657,39.9201766 40.440139,41.1090353 40.440139,43.1470788 L40.440139,49.5923913 L37.5189434,49.5923913 L37.5189434,48.4205163 L37.3575983,48.4205163 C36.9330059,49.2272418 35.8970004,49.7367527 34.6996499,49.7367527 Z M42.1404683,49.5923913 L42.1404683,36.5998641 L45.1380905,36.5998641 L45.1380905,49.5923913 L42.1404683,49.5923913 Z M52.799697,39.9966033 C55.1859062,39.9966033 56.6040448,41.7713995 56.6040448,44.8624321 C56.6040448,47.9449728 55.2198736,49.7367527 52.8676317,49.7367527 C51.5004442,49.7367527 50.4984062,49.1423234 50.0568301,48.1402853 L49.895485,48.1402853 L49.895485,52.7173913 L46.8978627,52.7173913 L46.8978627,40.1409647 L49.8190584,40.1409647 L49.8190584,41.6779891 L49.9804035,41.6779891 C50.4474551,40.625 51.4919524,39.9966033 52.799697,39.9966033 Z M51.7042486,47.376019 C52.850648,47.376019 53.521504,46.4334239 53.521504,44.8624321 C53.521504,43.3084239 52.8421562,42.357337 51.7042486,42.357337 C50.5748328,42.357337 49.8785013,43.3084239 49.8785013,44.8709239 C49.8785013,46.4419158 50.566341,47.376019 51.7042486,47.376019 Z M61.4803251,47.6392663 C62.4314121,47.6392663 63.1702028,47.0108696 63.1702028,46.1956522 L63.1702028,45.5757473 L61.5822273,45.6776495 C60.6905833,45.7455842 60.2235316,46.09375 60.2235316,46.6627038 C60.2235316,47.265625 60.7245507,47.6392663 61.4803251,47.6392663 Z M60.3848767,49.7367527 C58.5676213,49.7367527 57.3278115,48.607337 57.3278115,46.875 C57.3278115,45.1511549 58.6695235,44.1491168 61.1066838,44.0047554 L63.1702028,43.8858696 L63.1702028,43.1470788 C63.1702028,42.5101902 62.6946593,42.1280571 61.8624583,42.1280571 C61.0727164,42.1280571 60.5632055,42.3913043 60.367893,42.8923234 L57.6674854,42.8923234 C57.803355,41.0580842 59.476249,39.9201766 62.0322952,39.9201766 C64.6392925,39.9201766 66.1253659,41.1090353 66.1253659,43.1470788 L66.1253659,49.5923913 L63.2041702,49.5923913 L63.2041702,48.4205163 L63.0428251,48.4205163 C62.6182327,49.2272418 61.5822273,49.7367527 60.3848767,49.7367527 Z M67.7407766,49.5923913 L67.7407766,40.1409647 L70.6619723,40.1409647 L70.6619723,41.6949728 L70.8233174,41.6949728 C71.0525973,40.7438859 71.9697168,39.9966033 73.1500837,39.9966033 C73.5492005,39.9966033 74.0162522,40.0475543 74.2370402,40.1409647 L74.2370402,42.6970109 C74.0077603,42.6036005 73.4048391,42.5271739 72.9462793,42.5271739 C71.6215511,42.5271739 70.7383989,43.2744565 70.7383989,44.5906929 L70.7383989,49.5923913 L67.7407766,49.5923913 Z M78.5443667,47.6392663 C79.4954537,47.6392663 80.2342445,47.0108696 80.2342445,46.1956522 L80.2342445,45.5757473 L78.6462689,45.6776495 C77.7546249,45.7455842 77.2875733,46.09375 77.2875733,46.6627038 C77.2875733,47.265625 77.7885923,47.6392663 78.5443667,47.6392663 Z M77.4489184,49.7367527 C75.6316629,49.7367527 74.3918532,48.607337 74.3918532,46.875 C74.3918532,45.1511549 75.7335651,44.1491168 78.1707254,44.0047554 L80.2342445,43.8858696 L80.2342445,43.1470788 C80.2342445,42.5101902 79.758701,42.1280571 78.9264999,42.1280571 C78.136758,42.1280571 77.6272472,42.3913043 77.4319347,42.8923234 L74.7315271,42.8923234 C74.8673966,41.0580842 76.5402907,39.9201766 79.0963368,39.9201766 C81.7033341,39.9201766 83.1894075,41.1090353 83.1894075,43.1470788 L83.1894075,49.5923913 L80.2682118,49.5923913 L80.2682118,48.4205163 L80.1068667,48.4205163 C79.6822743,49.2272418 78.6462689,49.7367527 77.4489184,49.7367527 Z M84.8048183,49.5923913 L84.8048183,40.1409647 L87.8109324,40.1409647 L87.8109324,49.5923913 L84.8048183,49.5923913 Z M87.4372911,38.6548913 L84.8133101,38.6548913 L86.8938128,35.6063179 L89.9169107,35.6063179 L87.4372911,38.6548913 Z M89.2819817,42.9857337 C89.2819817,41.1090353 90.886941,39.9201766 93.4344953,39.9201766 C96.0499845,39.9201766 97.4851067,40.9307065 97.5955008,42.8328804 L94.8611258,42.8328804 C94.7762073,42.2809103 94.2751883,41.9497283 93.4599709,41.9497283 C92.6787209,41.9497283 92.1352426,42.2894022 92.1352426,42.798913 C92.1352426,43.1980299 92.4749165,43.4358016 93.2221991,43.5971467 L95.1753241,43.9962636 C97.0350388,44.3868886 97.8417643,45.1596467 97.8417643,46.594769 C97.8417643,48.5563859 96.1179192,49.8131793 93.4769546,49.8131793 C90.7680551,49.8131793 89.2225388,48.7856658 89.0527018,46.8834918 L91.948422,46.8834918 C92.1012752,47.4694293 92.6362616,47.7836277 93.5194138,47.7836277 C94.343123,47.7836277 94.8781095,47.4524457 94.8781095,46.9429348 C94.8781095,46.5438179 94.5978785,46.3315217 93.842104,46.1701766 L92.0842915,45.7965353 C90.2075932,45.3974185 89.2819817,44.4718071 89.2819817,42.9857337 Z M103.414376,49.8131793 C100.391278,49.8131793 98.5994985,47.9704484 98.5994985,44.8624321 C98.5994985,41.8053668 100.442229,39.9201766 103.414376,39.9201766 C106.403507,39.9201766 108.229254,41.7883832 108.229254,44.8624321 C108.229254,47.9789402 106.445966,49.8131793 103.414376,49.8131793 Z M103.414376,47.5203804 C104.518316,47.5203804 105.146713,46.5438179 105.146713,44.8624321 C105.146713,43.2150136 104.501333,42.2129755 103.414376,42.2129755 C102.32742,42.2129755 101.682039,43.2150136 101.682039,44.8624321 C101.682039,46.5523098 102.310436,47.5203804 103.414376,47.5203804 Z"/>
</svg>
